<svg width="238" height="28" viewBox="0 0 238 28" fill="none" xmlns="http://www.w3.org/2000/svg">
<path d="M23.2252 20.1123C23.2252 22.4834 22.102 24.3515 19.8556 25.7167C17.6248 27.0819 14.5144 27.7645 10.5242 27.7645C6.84825 27.7645 3.59642 27.2376 0.768738 26.1837V21.0105C3.09372 21.8008 5.05738 22.3577 6.65974 22.681C8.2778 23.0043 9.75447 23.166 11.0898 23.166C12.6921 23.166 13.9174 22.9325 14.7657 22.4654C15.6298 21.9984 16.0618 21.3038 16.0618 20.3818C16.0618 19.8668 15.8733 19.4118 15.4962 19.0166C15.1192 18.6094 14.5615 18.2202 13.8232 17.849C13.1006 17.4778 11.616 16.885 9.36959 16.0707C7.26454 15.3163 5.68576 14.5918 4.63323 13.8972C3.58071 13.2026 2.74026 12.3943 2.11189 11.4722C1.48351 10.5501 1.16933 9.47236 1.16933 8.23891C1.16933 5.91572 2.19829 4.0895 4.25621 2.76026C6.32984 1.43101 9.18894 0.766388 12.8335 0.766388C14.6244 0.766388 16.3288 0.928053 17.9469 1.25138C19.5807 1.57471 21.2851 2.02977 23.0603 2.61656L20.7039 6.94559C18.8659 6.37078 17.3421 5.96961 16.1325 5.74208C14.9386 5.51455 13.7604 5.40079 12.5979 5.40079C11.2154 5.40079 10.1551 5.64628 9.41672 6.13726C9.41672 6.13726 8.30921 7.26892 8.30921 8.05928C8.30921 8.55027 8.45845 8.98137 8.75693 9.3526C9.05541 9.71186 9.52669 10.0651 10.1708 10.4124C10.8306 10.7477 12.3779 11.3584 14.8129 12.2446C18.0333 13.4182 20.2404 14.5977 21.4344 15.7833C22.6283 16.9569 23.2252 18.3999 23.2252 20.1123Z" fill="#3C3129"/>
<path d="M57.1809 27.4052H48.8864L42.1032 16.0707L36.7745 18.0286V27.4052H29.4697V1.14361H36.7745L35.1731 14.6371L39.6493 10.0711L48.9807 1.14361H57.0867L45.069 12.7655L57.1809 27.4052Z" fill="#3C3129"/>
<path d="M61.5167 27.4052V1.14361H68.8215V27.4052H61.5167Z" fill="#3C3129"/>
<path d="M108.056 27.4052H98.7714L81.8803 3.79255L83.5726 7.53836C83.8711 11.0471 84.0203 13.5499 84.0203 15.0468V27.4052H77.4931V1.14361H86.7066L102.95 24.4763L101.835 20.8129C101.599 17.3999 101.481 14.9869 101.481 13.5739V1.14361H108.056V27.4052Z" fill="#3C3129"/>
<path d="M130.041 27.4052H122.736V5.77801H113.381V1.14361H139.396V5.77801H126.9L130.041 27.4052Z" fill="#3C3129"/>
<path d="M178.253 27.4052H169.935L165.269 13.6098C165.096 13.1188 164.798 12.1069 164.374 10.5741C163.965 9.02927 163.729 7.99342 163.667 7.46651C163.572 8.11317 163.337 9.15501 162.96 10.592C162.583 12.0171 162.292 13.035 162.088 13.6457L157.446 27.4052H149.151L140.362 1.14361H147.549L151.955 15.4779C152.725 18.1244 152.476 22.5363 152.821 24.4763C152.915 23.7937 153.935 20.6213 154.265 19.1962C154.61 17.7592 154.932 16.6455 155.231 15.8551L160.25 1.14361H167.154L172.173 15.8551C172.393 16.5138 172.668 17.5197 172.998 18.8729C173.328 20.2261 172.825 23.5063 172.998 24.4763C173.155 23.5422 174.16 20.262 174.506 18.8729C174.852 17.4718 175.166 16.3401 175.449 15.4779L179.831 1.14361H187.019L178.253 27.4052Z" fill="#3C3129"/>
<path d="M191.354 27.4052V1.14361H198.659V27.4052H191.354Z" fill="#3C3129"/>
<path d="M237.893 27.4052H228.609L211.947 4.10064L213.41 7.53836C213.709 11.0471 213.858 13.5499 213.858 15.0468V27.4052H207.331V1.14361H216.544L233.008 24.4763L231.672 20.8129C231.437 17.3999 231.319 14.9869 231.319 13.5739V1.14361H237.893V27.4052Z" fill="#3C3129"/>
</svg>
